<svg width="51.377mm" height="51.377mm" version="1.1" viewBox="0 0 51.377 51.377" xmlns="http://www.w3.org/2000/svg">
 <g transform="translate(-73.452 -112.79)">
  <circle cx="99.144" cy="138.48" r="10.371" fill="#fff"/>
  <path d="m104.87 138.48a5.7299 5.7299 0 0 1-5.7299 5.7299 5.7299 5.7299 0 0 1-5.7299-5.7299 5.7299 5.7299 0 0 1 5.7299-5.7299 5.7299 5.7299 0 0 1 5.7299 5.7299zm-5.8838-13.663c-9.1942 0.0582-18.337 4.6612-25.534 13.635 14.505 18.454 37.613 18.052 51.377 0-7.4026-9.2068-16.648-13.694-25.842-13.635zm0.154 3.7197a9.9428 9.9428 0 0 1 9.9425 9.9431 9.9428 9.9428 0 0 1-9.9425 9.9425 9.9428 9.9428 0 0 1-9.9431-9.9425 9.9428 9.9428 0 0 1 9.9431-9.9431z" fill="#056162" stroke-linecap="round" stroke-linejoin="round" stroke-width="3.3526"/>
 </g>
</svg>
